# xmcd
#
# Track frame offsets:
#	150
#	22022
#	42185
#	55921
#	77273
#	100484
#	118010
#	138661
#	152051
#	173067
#	194842
#	208899
#	233910
#
# Disc length: 3388 seconds
#
# Revision: 0
# Processed by: cddbd v1.5.1PL2 Copyright (c) Steve Scherf et al.
# Submitted via: dBpowerAMP V4.0
#
DISCID=b70d3a0d
DTITLE=Jak de Priester - Brooklyn 'poet'
DYEAR=1900
DGENRE=Ballad
TTITLE0=Brooklyn 'poet'
TTITLE1=b-com liefdesbestuur
TTITLE2='n foto
TTITLE3=dis amazing
TTITLE4=Kersfees in Kaapstad
TTITLE5=die son sal weer skyn
TTITLE6=my hooglied
TTITLE7=gister
TTITLE8=gondwana
TTITLE9=airmail
TTITLE10=binnelanders
TTITLE11=nagklub
TTITLE12=die ou met die golf
EXTD=
EXTT0=
EXTT1=
EXTT2=
EXTT3=
EXTT4=
EXTT5=
EXTT6=
EXTT7=
EXTT8=
EXTT9=
EXTT10=
EXTT11=
EXTT12=
PLAYORDER=
